<svg width="24" height="24" viewBox="0 0 24 24" fill="none" xmlns="http://www.w3.org/2000/svg">
<path d="M12 21.9958C17.523 21.9958 22 17.5196 22 11.9976C22 6.47567 17.523 1.99951 12 1.99951C6.477 1.99951 2 6.47567 2 11.9976C2 17.5196 6.477 21.9958 12 21.9958Z" stroke="#526373" stroke-width="1.49972" stroke-linecap="round" stroke-linejoin="round"/>
<path d="M8.00005 2.99951H9.00005C7.04979 8.83994 7.04979 15.1557 9.00005 20.9961H8.00005M15 2.99951C16.9503 8.83994 16.9503 15.1557 15 20.9961" stroke="#526373" stroke-width="1.49972" stroke-linecap="round" stroke-linejoin="round"/>
<path d="M3 15.9972V14.9974C8.84152 16.9473 15.1585 16.9473 21 14.9974V15.9972M3 8.99855C8.84152 7.04866 15.1585 7.04866 21 8.99855" stroke="#526373" stroke-width="1.49972" stroke-linecap="round" stroke-linejoin="round"/>
</svg>
