<svg width="24" height="24" viewBox="0 0 24 24" fill="none" xmlns="http://www.w3.org/2000/svg">
<path d="M22 20.0661V12.1776C22 6.57865 17.5 1.99951 12 1.99951C6.5 1.99951 2 6.57865 2 12.1776V20.0661C2 21.3259 2.75 21.6658 3.67 20.826L4.67 19.9162C5.04 19.5762 5.64 19.5762 6.01 19.9162L8.01 21.7458C8.38 22.0857 8.98 22.0857 9.35 21.7458L11.35 19.9162C11.72 19.5762 12.32 19.5762 12.69 19.9162L14.69 21.7458C15.06 22.0857 15.66 22.0857 16.03 21.7458L18.03 19.9162C18.4 19.5762 19 19.5762 19.37 19.9162L20.37 20.826C21.25 21.6658 22 21.3259 22 20.0661Z" stroke="#526373" stroke-width="1.49972" stroke-linecap="round" stroke-linejoin="round"/>
<path d="M8 13.9972C9.15354 14.8636 10.5573 15.332 12 15.332C13.4427 15.332 14.8465 14.8636 16 13.9972M12 10.9978C12.5304 10.9978 13.0391 10.7871 13.4142 10.4121C13.7893 10.0371 14 9.52849 14 8.99816C14 8.46783 13.7893 7.95921 13.4142 7.58421C13.0391 7.20921 12.5304 6.99854 12 6.99854C11.4696 6.99854 10.9609 7.20921 10.5858 7.58421C10.2107 7.95921 10 8.46783 10 8.99816C10 9.52849 10.2107 10.0371 10.5858 10.4121C10.9609 10.7871 11.4696 10.9978 12 10.9978Z" stroke="#526373" stroke-width="1.49972" stroke-linecap="round" stroke-linejoin="round"/>
</svg>
